<svg width="510" height="110" viewBox="0 0 510 110" fill="none" xmlns="http://www.w3.org/2000/svg">
<rect width="120" height="110" fill="#EF3C24"/>
<path d="M199.03 43.17C199.03 54.24 190.21 62.7 180.04 62.7H164.38C164.11 62.7 164.02 62.79 164.02 63.06V86.55C164.02 86.82 163.84 87 163.57 87H153.67C153.4 87 153.22 86.82 153.22 86.55V24.09C153.22 23.82 153.4 23.64 153.67 23.64H180.04C190.21 23.64 199.03 32.19 199.03 43.17ZM164.47 52.8H179.14C183.91 52.8 188.32 48.48 188.32 43.17C188.32 37.86 183.91 33.54 179.14 33.54H164.38C164.11 33.54 164.02 33.72 164.02 33.9V52.35C164.02 52.62 164.2 52.8 164.47 52.8ZM235.162 83.67C233.272 85.65 229.132 87.9 225.352 87.9C210.322 87.9 205.462 77.82 205.462 66.48V41.91C205.462 41.64 205.642 41.46 205.912 41.46H215.812C216.082 41.46 216.262 41.64 216.262 41.91V66.48C216.262 71.88 219.142 78 226.252 78C233.272 78 236.152 72.78 236.152 67.38V41.91C236.152 41.64 236.332 41.46 236.602 41.46H246.592C246.772 41.46 246.952 41.64 246.952 41.91V86.55C246.952 86.82 246.772 87 246.502 87H237.952C237.412 87 237.232 86.82 237.052 86.46L236.152 83.76C235.972 83.4 235.522 83.22 235.162 83.67ZM271.456 83.67C271.096 83.31 270.646 83.31 270.466 83.67L269.566 86.55C269.386 86.91 269.206 87 268.666 87H260.116C259.846 87 259.666 86.82 259.666 86.55V24.09C259.666 23.82 259.846 23.64 260.116 23.64H270.016C270.286 23.64 270.466 23.82 270.466 24.09V44.61C270.466 45.06 270.916 45.24 271.276 44.88C273.076 43.08 277.216 40.56 282.976 40.56C294.856 40.56 303.586 50.19 303.586 64.23C303.586 78.27 295.666 87.9 282.976 87.9C278.386 87.9 273.616 85.83 271.456 83.67ZM292.786 64.23C292.786 56.13 288.826 50.46 281.176 50.46C273.976 50.46 270.466 55.23 270.466 64.23C270.466 72.33 273.976 78 281.176 78C288.826 78 292.786 72.33 292.786 64.23ZM323.081 87H313.181C312.911 87 312.731 86.82 312.731 86.55V24.09C312.731 23.82 312.911 23.64 313.181 23.64H323.081C323.351 23.64 323.531 23.82 323.531 24.09V86.55C323.531 86.82 323.351 87 323.081 87ZM347.825 35.52H337.025C336.755 35.52 336.575 35.34 336.575 35.07V24.09C336.575 23.82 336.755 23.64 337.025 23.64H347.825C348.095 23.64 348.275 23.82 348.275 24.09V35.07C348.275 35.34 348.095 35.52 347.825 35.52ZM347.375 87H337.475C337.205 87 337.025 86.82 337.025 86.55V41.91C337.025 41.64 337.205 41.46 337.475 41.46H347.375C347.645 41.46 347.825 41.64 347.825 41.91V86.55C347.825 86.82 347.645 87 347.375 87ZM378.245 40.56C389.675 40.56 397.685 46.77 399.215 56.4C399.305 56.76 399.035 56.85 398.765 56.85H388.595C388.325 56.85 388.055 56.67 387.965 56.4C386.435 52.44 383.465 50.1 378.245 50.1C370.685 50.1 367.085 56.22 367.085 64.23C367.085 72.24 370.685 78.36 378.245 78.36C384.275 78.36 386.615 76.02 388.145 72.06C388.235 71.79 388.505 71.61 388.775 71.61H398.945C399.215 71.61 399.485 71.7 399.395 72.06C397.505 82.32 389.585 87.9 378.245 87.9C364.205 87.9 356.195 78.27 356.195 64.23C356.195 50.1 364.205 40.56 378.245 40.56ZM465.622 73.95H440.152C439.882 73.95 439.612 74.13 439.522 74.4L438.982 76.11L435.652 86.55C435.562 86.91 435.292 87 435.112 87H424.762C424.402 87 424.222 86.64 424.312 86.37L444.292 24.09C444.382 23.82 444.652 23.64 444.832 23.64H461.032C461.212 23.64 461.482 23.82 461.572 24.09L481.462 86.37C481.552 86.64 481.372 87 481.012 87H470.662C470.482 87 470.212 86.82 470.122 86.55L467.152 77.1L466.252 74.4C466.162 74.13 465.892 73.95 465.622 73.95ZM452.482 33.9L442.942 63.6C442.852 63.87 443.032 64.05 443.302 64.05H462.562C462.832 64.05 462.922 63.87 462.832 63.6L453.382 33.9C453.202 33.45 452.662 33.45 452.482 33.9ZM502.941 87H493.041C492.771 87 492.591 86.82 492.591 86.55V24.09C492.591 23.82 492.771 23.64 493.041 23.64H502.941C503.211 23.64 503.391 23.82 503.391 24.09V86.55C503.391 86.82 503.211 87 502.941 87Z" fill="#EF3C24"/>
<path d="M28 70.6977V58.907L77.7485 44.8992L28 30.6899V19L92 38.5504V51.2481L28 70.6977ZM28 87V76.4186H92V87H28Z" fill="white"/>
</svg>
